HIERARCHY
ROOT Hips
{
	OFFSET -0.001795 -0.223333 0.028219
	CHANNELS 6 Xposition Yposition Zposition Zrotation Yrotation Xrotation 
	JOINT LeftUpLeg
	{
		OFFSET 0.069520 -0.091406 -0.006815
		CHANNELS 3 Zrotation Yrotation Xrotation
		JOINT LeftLeg
		{
			OFFSET 0.034277 -0.375199 -0.004496
			CHANNELS 3 Zrotation Yrotation Xrotation
			JOINT LeftFoot
			{
				OFFSET -0.013596 -0.397961 -0.043693
				CHANNELS 3 Zrotation Yrotation Xrotation
				JOINT LeftToe
				{
					OFFSET 0.026358 -0.055791 0.119288
					CHANNELS 3 Zrotation Yrotation Xrotation
					End Site
					{
						OFFSET 0.000000 0.000000 0.000000
					}
				}
			}
		}
	}
	JOINT RightUpLeg
	{
		OFFSET -0.067670 -0.090522 -0.004320
		CHANNELS 3 Zrotation Yrotation Xrotation
		JOINT RightLeg
		{
			OFFSET -0.038290 -0.382569 -0.008850
			CHANNELS 3 Zrotation Yrotation Xrotation
			JOINT RightFoot
			{
				OFFSET 0.015774 -0.398415 -0.042312
				CHANNELS 3 Zrotation Yrotation Xrotation
				JOINT RightToe
				{
					OFFSET -0.025372 -0.048144 0.123348
					CHANNELS 3 Zrotation Yrotation Xrotation
					End Site
					{
						OFFSET 0.000000 0.000000 0.000000
					}
				}
			}
		}
	}
	JOINT Spine
	{
		OFFSET -0.002533 0.108963 -0.026696
		CHANNELS 3 Zrotation Yrotation Xrotation
		JOINT Spine1
		{
			OFFSET 0.005487 0.135180 0.001092
			CHANNELS 3 Zrotation Yrotation Xrotation
			JOINT Spine2
			{
				OFFSET 0.001457 0.052922 0.025425
				CHANNELS 3 Zrotation Yrotation Xrotation
				JOINT Neck
				{
					OFFSET -0.002778 0.213870 -0.042857
					CHANNELS 3 Zrotation Yrotation Xrotation
					JOINT Head
					{
						OFFSET 0.005152 0.064970 0.051349
						CHANNELS 3 Zrotation Yrotation Xrotation
						End Site
						{
							OFFSET 0.000000 0.000000 0.000000
						}
					}
				}
				JOINT LeftShoulder
				{
					OFFSET 0.078845 0.121749 -0.034090
					CHANNELS 3 Zrotation Yrotation Xrotation
					JOINT LeftArm
					{
						OFFSET 0.090977 0.030469 -0.008868
						CHANNELS 3 Zrotation Yrotation Xrotation
						JOINT LeftForeArm
						{
							OFFSET 0.259612 -0.012772 -0.027456
							CHANNELS 3 Zrotation Yrotation Xrotation
							JOINT LeftHand
							{
								OFFSET 0.249234 0.008986 -0.001171
								CHANNELS 3 Zrotation Yrotation Xrotation
								End Site
								{
									OFFSET 0.000000 0.000000 0.000000
								}
							}
						}
					}
				}
				JOINT RightShoulder
				{
					OFFSET -0.081759 0.118833 -0.038615
					CHANNELS 3 Zrotation Yrotation Xrotation
					JOINT RightArm
					{
						OFFSET -0.096012 0.032551 -0.009143
						CHANNELS 3 Zrotation Yrotation Xrotation
						JOINT RightForeArm
						{
							OFFSET -0.253742 -0.013329 -0.021401
							CHANNELS 3 Zrotation Yrotation Xrotation
							JOINT RightHand
							{
								OFFSET -0.255298 0.007772 -0.005559
								CHANNELS 3 Zrotation Yrotation Xrotation
								End Site
								{
									OFFSET 0.000000 0.000000 0.000000
								}
							}
						}
					}
				}
			}
		}
	}
}
MOTION
Frames: 7
Frame Time: 0.050000
0.000000 0.981621 0.000000 -0.963161 0.273750 5.688073 1.609597 0.130743 2.296176 -2.151851 0.739248 -33.582564 40.067148 24.981157 109.788791 0.000000 0.000000 0.000000 -2.129114 0.201227 -1.457465 0.970267 -1.147137 -31.881538 -50.618380 -24.389552 124.776835 0.000000 0.000000 0.000000 2.366458 0.146261 -3.514056 0.346510 1.019248 -43.677547 -0.475465 1.797520 42.757234 -0.149674 3.390830 -78.491464 0.000000 0.000000 0.000000 -15.343886 1.931969 -1.648204 -59.698843 -14.658549 -4.190886 -14.867403 27.831454 -4.235872 0.000000 0.000000 0.000000 12.323494 -3.928394 -1.850772 65.953181 14.290369 -2.566623 10.394435 -33.489366 -2.984118 0.000000 0.000000 0.000000 
0.000647 0.979720 0.000230 -0.723787 -0.879794 6.736392 1.489222 -0.115992 -0.911386 -1.734341 0.858277 -30.016106 44.897640 24.738563 114.789574 0.000000 0.000000 0.000000 -2.652721 0.380878 -3.462101 0.838379 -1.012348 -30.270074 -48.859769 -23.773852 124.885171 0.000000 0.000000 0.000000 1.600671 0.192407 -4.412334 1.141559 1.086442 -44.510655 0.390830 3.141560 43.719341 -1.394339 3.384823 -78.791730 0.000000 0.000000 0.000000 -16.592727 1.681732 -1.758023 -58.963629 -15.857569 -3.642743 -14.567544 28.362278 -4.276217 0.000000 0.000000 0.000000 11.599395 -5.055821 -2.295911 67.405021 14.078871 -2.450437 9.933888 -32.870215 -2.774008 0.000000 0.000000 0.000000 
0.000985 0.980705 0.000862 -0.365130 -1.384664 5.746760 0.683167 -0.013257 0.065377 -1.428793 0.949796 -30.111802 51.067523 25.057022 116.481551 0.000000 0.000000 0.000000 -2.506677 0.356952 -3.243261 0.166928 -1.026027 -28.916422 -45.810307 -22.810633 126.163277 0.000000 0.000000 0.000000 1.950525 0.167231 -3.823602 -1.324146 1.275288 -45.632540 1.706951 1.394279 45.447874 -5.997811 3.849093 -79.620267 0.000000 0.000000 0.000000 -15.848887 1.861310 -1.307099 -59.890824 -16.438918 -3.549037 -12.691664 28.423525 -3.635091 0.000000 0.000000 0.000000 12.035539 -3.375046 -1.702034 65.897800 14.724548 -2.780748 9.195639 -32.606042 -2.626665 0.000000 0.000000 0.000000 
0.001140 0.980236 0.001234 -0.560065 -3.123176 5.779925 0.732151 -0.078794 -0.686383 -0.983253 1.162750 -29.940885 49.782672 24.655922 119.325855 0.000000 0.000000 0.000000 -2.561623 0.438709 -4.214707 1.358679 -0.681595 -27.883221 -49.558531 -22.940374 124.831480 0.000000 0.000000 0.000000 2.137207 0.205714 -4.326962 -0.697749 1.369333 -44.937441 2.015037 2.564724 44.913667 -4.539904 3.774293 -78.425152 0.000000 0.000000 0.000000 -16.167924 3.242165 -2.081849 -60.553350 -16.091800 -3.609299 -11.033784 29.678493 -3.339597 0.000000 0.000000 0.000000 11.881711 -3.932335 -1.992663 66.377445 15.232257 -2.338328 9.203717 -33.010141 -2.676019 0.000000 0.000000 0.000000 
0.001243 0.978754 0.001857 -0.363059 -2.831609 5.366733 0.625851 -0.016039 0.001126 -1.313726 1.063394 -29.370082 48.801126 25.532398 115.777007 0.000000 0.000000 0.000000 -2.516410 0.403354 -3.812563 0.792219 -0.775814 -27.308357 -46.127594 -23.088394 123.626668 0.000000 0.000000 0.000000 2.068257 0.211252 -4.401010 -1.071453 1.316222 -43.387830 1.811378 1.433919 44.250821 -5.859502 3.992509 -78.096242 0.000000 0.000000 0.000000 -16.507500 3.691273 -2.150311 -60.286581 -15.252053 -3.977276 -10.292558 28.378308 -3.006813 0.000000 0.000000 0.000000 11.685836 -4.339997 -2.335044 65.874030 14.375751 -2.933076 8.465726 -30.304470 -2.463943 0.000000 0.000000 0.000000 
0.001339 0.977637 0.002374 -0.204870 -3.096328 5.668300 0.772998 0.004160 0.277302 -1.601942 1.048862 -29.447546 48.349181 25.917024 114.631835 0.000000 0.000000 0.000000 -2.820534 0.410698 -3.820025 0.614390 -0.772368 -26.768034 -44.412789 -23.320737 122.015526 0.000000 0.000000 0.000000 1.931227 0.215688 -4.514013 -1.025766 1.345220 -43.816188 2.138931 1.362426 44.826255 -7.574552 4.156782 -77.558362 0.000000 0.000000 0.000000 -16.481104 4.270902 -2.413403 -60.177454 -14.422382 -4.445465 -10.019988 27.369631 -2.864759 0.000000 0.000000 0.000000 11.088252 -4.998132 -2.630077 65.791384 13.622000 -3.441775 9.328425 -28.122468 -2.613405 0.000000 0.000000 0.000000 
0.001463 0.976278 0.002676 -0.348235 -2.793116 5.748601 1.126301 0.025985 0.649012 -2.009366 0.989089 -30.133620 49.796017 25.891090 114.944040 0.000000 0.000000 0.000000 -2.566311 0.413681 -3.904614 0.565052 -0.795802 -26.525769 -45.532807 -23.319715 122.789839 0.000000 0.000000 0.000000 2.218588 0.212930 -4.454588 -1.030132 1.331438 -44.015447 1.682707 0.989616 45.262439 -7.340757 4.143964 -78.306005 0.000000 0.000000 0.000000 -16.754308 4.213313 -2.331144 -59.787734 -13.900754 -4.791398 -10.517691 27.761939 -2.999381 0.000000 0.000000 0.000000 10.877123 -5.285543 -2.775037 65.569293 13.297984 -3.722341 9.541252 -28.023074 -2.680146 0.000000 0.000000 0.000000 
